<?xml version="1.0" encoding="UTF-8"?>
<svg id="Layer_1" data-name="Layer 1" xmlns="http://www.w3.org/2000/svg" viewBox="0 0 156 86">
  <defs>
    <style>
      .cls-1 {
        fill: #de8d26;
      }

      .cls-2 {
        fill: #53a191;
      }

      .cls-3 {
        fill: #63b7a8;
      }

      .cls-4 {
        fill: #fbbd5b;
      }

      .cls-5 {
        fill: #3e8277;
      }
    </style>
  </defs>
  <g>
    <path class="cls-4" d="M29.58,74.98s-.06,0-.08,0c-.05-.04-.27-.3-.6-2.07l-.12-.63-1.93,1.61s-.03.02-.05.02c0,0-.01,0-.02,0-.03,0-.05-.03-.06-.05l-.89-2.2-3.11.98s-.02,0-.03,0c-.01,0-.04,0-.06-.03-.02-.03-.03-.06-.01-.09l.48-.98-.18-.19c-6.77-7.06-14.98-18.74-15.61-34.32v-.24c0-6.99,1.96-13.57,5.54-18.51,3.81-5.27,9.17-8.31,14.72-8.35h0s.06,0,.06,0c.01,0,.03,0,.04,0,5.56.02,10.93,3.07,14.75,8.35,3.58,4.95,5.55,11.52,5.55,18.51v.24c-.71,17.3-10.99,29.84-17.05,35.78-.09.08-.85.84-1.14,1.89h0s0,.03,0,.03c-.05.26-.15.26-.18.26h0ZM27.63,21.99c-1.85.02-3.89,1.52-5.47,4.02-1.78,2.82-2.77,6.6-2.79,10.65v.02c.32,7.27,3,14.39,7.97,21.16l.3.41.3-.41c4.96-6.77,7.64-13.89,7.96-21.18v-.02c-.02-4.04-1.01-7.81-2.79-10.63-1.58-2.5-3.63-4-5.47-4.02h0s0,0,0,0Z"/>
    <path class="cls-1" d="M27.63,15.19h0c-7.15.02-14.88,8.2-14.87,21.42.46,11.28,5.47,20.33,10.48,26.63l.9-.79c-4.8-6.09-9.79-14.96-10.23-25.86,0-12.49,7.13-20.23,13.73-20.25,6.6.02,13.73,7.77,13.73,20.23-.74,18.18-14.09,30.72-18.17,34.13v1.12s.08.35.08.35c5.34-4.47,18.49-17.42,19.22-35.58,0-13.19-7.72-21.38-14.88-21.4"/>
    <path class="cls-1" d="M29.58,75.27c-.24,0-.5,0-.88-1.83l-.13-.61-1.53,1.28c-.07.06-.16.09-.25.09-.03,0-.06,0-.09-.01-.12-.03-.22-.11-.26-.23l-.79-1.95-2.84.9s-.08.02-.12.02c-.11,0-.22-.05-.29-.13-.1-.12-.12-.28-.05-.42l.39-.79-.18-.19c-6.74-7.07-14.92-18.77-15.55-34.36v-.25c0-7.05,1.98-13.7,5.6-18.69,3.88-5.37,9.35-8.46,15.02-8.47h.05c5.66.02,11.13,3.11,15,8.47,3.61,5,5.6,11.64,5.6,18.69v.25c-.71,17.41-11.05,30.02-17.14,35.98-.08.07-.78.77-1.05,1.74h0s0,.03,0,.03c-.08.4-.3.49-.48.49h0ZM28.85,71.73s.09,0,.13.02c.13.05.22.16.25.3.05.28.11.59.17.9l.17.84.5-.7c.28-.4.53-.62.54-.63,6.02-5.89,16.2-18.31,16.9-35.45v-.23c0-6.89-1.93-13.36-5.45-18.23-3.73-5.17-8.98-8.14-14.4-8.15h-.02c-5.42.01-10.67,2.99-14.4,8.15-3.52,4.87-5.46,11.35-5.46,18.24v.23c.41,10.04,4.01,19.59,10.69,28.39h-.02s.56.7.56.7l.55.72v-.03c.49.61,1,1.23,1.52,1.83h-.01s.36.4.36.4l.37.42h0c.3.33.62.67.94,1.01l.37.4,1.03-2.13-2,.06s-.03,0-.05,0l-.32-.05v-.31s0-.03,0-.03c0-.01,0-.03,0-.04v-.04s.01-.04.02-.05h0s0-.03,0-.03l.76-1.61-2.85-.75s-.02,0-.03,0l-.23-.08-.03-.26c0-.17.09-.32.25-.38,1.77-.67,4.46-3.1,4.94-3.65.82-.92,1.62-1.89,2.38-2.87l.17-.22-.17-.23c-5.04-6.85-7.76-14.08-8.09-21.47.02-4.22,1.09-8.15,3.02-11.08,1.65-2.51,3.76-4.03,5.65-4.08h.05s0,0,0,0h.03s.02,0,.02,0h.01c1.88.04,4,1.57,5.66,4.08,1.93,2.92,3,6.84,3.02,11.04-.5,11.12-6.36,19.92-11.19,25.34-.38.42-1.94,1.87-3.55,2.94l-.7.46,2.27.6c.11.03.2.1.25.21.05.1.05.22,0,.33l-.7,1.48,1.98-.06h.05c.05,0,.1.02.14.04.03.01.05.03.08.06h.01s0,.02,0,.02c.03.03.05.06.06.08h0s0,.02,0,.02c0,0,0,.01.01.02,0,.02.01.04.01.06v.05s.01.02.01.02v.02s0,.03,0,.04v.04s-.01.03-.02.05v.02s0,.02,0,.02l-1.66,3.41,2.33-.74s.08-.02.12-.02c.16,0,.3.09.35.24l.72,1.79,1.64-1.37c.07-.06.16-.09.25-.09ZM27.63,22.29c-1.78.02-3.75,1.5-5.27,3.95-1.72,2.76-2.67,6.46-2.69,10.42v.02c.32,7.08,2.9,14.02,7.67,20.65l.3.42.3-.42c4.77-6.62,7.35-13.58,7.66-20.68v-.02c-.02-3.94-.97-7.63-2.69-10.39-1.53-2.45-3.5-3.93-5.28-3.95h0s0,0,0,0Z"/>
  </g>
  <path d="M64.4,23.26v.38c0,.17-.08.25-.25.25h-4.25c-.07,0-.1.03-.1.1v16.45c0,.17-.08.25-.25.25h-.48c-.17,0-.25-.08-.25-.25v-16.45c0-.07-.03-.1-.1-.1h-4.02c-.17,0-.25-.08-.25-.25v-.38c0-.17.08-.25.25-.25h9.45c.17,0,.25.08.25.25"/>
  <path d="M70.44,40.47l-4.12-17.18-.02-.1c0-.12.08-.18.23-.18h.51c.15,0,.24.08.28.23l3.61,15.26c.02.05.04.08.06.08s.05-.03.06-.08l3.23-15.26c.03-.15.13-.23.28-.23h.51c.17,0,.26.08.28.23l3.34,15.26c.02.05.03.08.05.08s.03-.03.05-.08l3.54-15.26c.03-.15.13-.23.28-.23h.5c.08,0,.15.03.19.08.04.05.05.12.01.2l-4.07,17.18c-.03.15-.13.23-.28.23h-.53c-.15,0-.24-.08-.28-.23l-3.29-15.36c-.02-.05-.03-.08-.05-.08-.02,0-.03.03-.05.08l-3.26,15.36c-.02.15-.11.23-.28.23h-.51c-.15,0-.24-.08-.28-.23"/>
  <path d="M86.56,40.45v-17.18c0-.17.08-.25.25-.25h.48c.17,0,.25.08.25.25v17.18c0,.17-.08.25-.25.25h-.48c-.17,0-.25-.08-.25-.25"/>
  <path d="M92.67,39.69c-.88-.81-1.33-1.88-1.33-3.21v-.71c0-.17.08-.25.25-.25h.43c.17,0,.25.09.25.25v.63c0,1.09.36,1.97,1.09,2.63.72.66,1.69.99,2.91.99s2.08-.31,2.75-.94c.67-.62,1.01-1.46,1.01-2.5,0-.67-.15-1.26-.44-1.74-.29-.49-.73-.94-1.31-1.34-.58-.4-1.39-.89-2.44-1.47-1.08-.61-1.9-1.11-2.46-1.52-.56-.4-1.02-.89-1.35-1.45-.34-.56-.51-1.27-.51-2.11,0-1.31.4-2.33,1.21-3.06.81-.72,1.9-1.09,3.29-1.09,1.5,0,2.68.41,3.54,1.23.86.82,1.29,1.9,1.29,3.25v.63c0,.17-.08.25-.25.25h-.45c-.17,0-.25-.08-.25-.25v-.58c0-1.1-.35-1.97-1.04-2.64-.69-.67-1.64-1-2.86-1-1.09,0-1.95.28-2.58.85-.62.56-.93,1.37-.93,2.41,0,.66.13,1.2.4,1.64.27.44.67.84,1.19,1.2.52.36,1.31.82,2.35,1.38,1.15.66,2.03,1.22,2.65,1.68.62.46,1.1.98,1.44,1.55.34.57.5,1.26.5,2.05,0,1.35-.43,2.43-1.29,3.23-.86.81-2.02,1.21-3.49,1.21s-2.69-.4-3.58-1.21"/>
  <path d="M112.92,23.26v.38c0,.17-.08.25-.25.25h-4.25c-.07,0-.1.03-.1.1v16.45c0,.17-.08.25-.25.25h-.48c-.17,0-.25-.08-.25-.25v-16.45c0-.07-.03-.1-.1-.1h-4.02c-.17,0-.25-.08-.25-.25v-.38c0-.17.08-.25.25-.25h9.45c.17,0,.25.08.25.25"/>
  <path d="M66.35,63.09c0,.1-.08.15-.23.15h-.53c-.12,0-.23-.05-.33-.15-.61-.76-1.12-1.42-1.54-2-.05-.07-.1-.08-.15-.03-.74.86-1.46,1.47-2.16,1.83-.7.36-1.5.54-2.41.54-1.33,0-2.38-.34-3.16-1.04-.78-.69-1.16-1.67-1.16-2.93,0-1.16.31-2.16.92-3.01.61-.84,1.5-1.73,2.64-2.65.05-.02.06-.06.03-.13-.67-.93-1.18-1.66-1.5-2.19-.33-.53-.55-.98-.67-1.35-.12-.37-.18-.77-.18-1.21,0-1.08.32-1.95.97-2.6.65-.66,1.5-.99,2.56-.99s1.92.32,2.59.96c.67.64,1,1.49,1,2.55,0,.71-.15,1.35-.45,1.93-.3.58-.68,1.1-1.12,1.55-.45.46-1.04.99-1.78,1.59-.05.02-.06.06-.03.13l2.2,2.93c.66.81,1.25,1.58,1.79,2.33.05.07.1.07.15,0,.32-.44.8-1.15,1.44-2.15.1-.13.22-.16.35-.08l.35.23c.12.08.14.2.08.35-.66.99-1.22,1.8-1.69,2.43-.03.05-.02.1.03.15l.76,1.06c.29.37.68.91,1.19,1.62.03.07.05.12.05.15M61.12,62.05c.61-.35,1.24-.92,1.9-1.73.03-.05.03-.1,0-.15-.54-.72-.93-1.25-1.16-1.59l-.48-.68c-1.21-1.58-2.02-2.66-2.43-3.23-.03-.05-.08-.05-.13,0-1.01.83-1.79,1.6-2.33,2.34-.54.73-.81,1.57-.81,2.51s.3,1.71.9,2.25c.6.54,1.42.81,2.46.81.77,0,1.47-.17,2.07-.52M57.61,47.01c-.47.48-.71,1.14-.71,1.98,0,.51.13,1.02.38,1.53.25.51.81,1.38,1.67,2.59.05.07.1.08.15.03.98-.81,1.71-1.52,2.21-2.15.5-.62.75-1.33.75-2.12s-.24-1.4-.72-1.87c-.48-.47-1.1-.71-1.86-.71s-1.4.24-1.87.72"/>
  <path d="M82.32,54.15c.82.35,1.47.91,1.92,1.65.45.75.68,1.65.68,2.72,0,1.47-.42,2.62-1.25,3.46-.83.84-1.96,1.26-3.37,1.26h-4.65c-.17,0-.25-.08-.25-.25v-17.18c0-.17.08-.25.25-.25h4.52c1.41,0,2.54.4,3.37,1.2.83.8,1.25,1.91,1.25,3.32,0,.94-.21,1.75-.64,2.43-.43.67-1.04,1.18-1.83,1.52-.08.03-.08.08,0,.13M76.38,46.54v7.02c0,.07.03.1.1.1h3.69c1.13,0,2.02-.32,2.67-.95.65-.63.97-1.49.97-2.59s-.32-2.05-.97-2.7c-.65-.66-1.54-.99-2.67-.99h-3.69c-.07,0-.1.03-.1.1M82.95,61.29c.66-.7.99-1.65.99-2.84s-.34-2.17-1.01-2.87c-.67-.7-1.58-1.05-2.73-1.05h-3.71c-.07,0-.1.03-.1.1v7.61c0,.07.03.1.1.1h3.79c1.13,0,2.02-.35,2.68-1.05"/>
  <path d="M91.04,62.82c-.74-.42-1.31-1.02-1.72-1.79-.4-.77-.61-1.67-.61-2.68v-12.53c0-.17.08-.25.25-.25h.48c.17,0,.25.08.25.25v12.63c0,1.23.36,2.22,1.07,2.98.72.76,1.65,1.14,2.82,1.14s2.13-.38,2.84-1.14c.72-.76,1.07-1.75,1.07-2.98v-12.63c0-.17.08-.25.25-.25h.48c.17,0,.25.08.25.25v12.53c0,1.53-.45,2.77-1.34,3.7-.89.94-2.08,1.4-3.56,1.4-.96,0-1.81-.21-2.55-.63"/>
  <path d="M103.32,62.16c-.88-.86-1.31-2-1.31-3.44v-8.69c0-1.4.44-2.53,1.33-3.39.88-.86,2.04-1.29,3.47-1.29s2.62.43,3.5,1.28c.88.85,1.33,1.98,1.33,3.4v.25c0,.17-.08.25-.25.25l-.51.02c-.17,0-.25-.08-.25-.23v-.33c0-1.13-.35-2.04-1.05-2.73-.7-.69-1.62-1.04-2.77-1.04s-2.07.35-2.77,1.04c-.7.69-1.05,1.6-1.05,2.73v8.79c0,1.13.35,2.04,1.05,2.73.7.69,1.62,1.04,2.77,1.04s2.07-.35,2.77-1.04c.7-.69,1.05-1.6,1.05-2.73v-.3c0-.15.08-.23.25-.23l.51.02c.17,0,.25.08.25.25v.2c0,1.42-.44,2.55-1.33,3.41-.88.86-2.05,1.29-3.5,1.29s-2.61-.43-3.49-1.29"/>
  <path d="M114.64,62.99v-17.18c0-.17.08-.25.25-.25h.48c.17,0,.25.08.25.25v9.1s.02.06.05.08c.03.02.06,0,.08-.03l7.25-9.25c.08-.1.19-.15.33-.15h.56c.1,0,.17.03.2.09.03.06.02.13-.05.22l-5.21,6.77s-.02.1,0,.15l5.74,10.16c.03.07.05.12.05.15,0,.1-.08.15-.23.15h-.61c-.12,0-.22-.06-.3-.18l-5.36-9.48c-.03-.08-.08-.08-.13,0l-2.33,2.86c-.03.07-.05.11-.05.13v6.42c0,.17-.09.25-.25.25h-.48c-.17,0-.25-.08-.25-.25"/>
  <path d="M127.75,62.99v-17.18c0-.17.08-.25.25-.25h.48c.17,0,.25.08.25.25v16.45c0,.07.03.1.1.1h7.58c.17,0,.25.09.25.25v.38c0,.17-.08.25-.25.25h-8.41c-.17,0-.25-.08-.25-.25"/>
  <path d="M148.75,46.44h-7.91c-.07,0-.1.03-.1.1v7.3c0,.07.03.1.1.1h5.46c.17,0,.25.08.25.25v.38c0,.17-.08.25-.25.25h-5.46c-.07,0-.1.03-.1.1v7.33c0,.07.03.1.1.1h7.91c.17,0,.25.08.25.25v.38c0,.17-.08.25-.25.25h-8.74c-.17,0-.25-.08-.25-.25v-17.18c0-.17.08-.25.25-.25h8.74c.17,0,.25.08.25.25v.38c0,.17-.08.25-.25.25"/>
  <path class="cls-1" d="M55.78,76.3v-5.75s.02-.07.07-.07h.53s.07.02.07.07v5.75s-.02.07-.07.07h-.53s-.07-.02-.07-.07"/>
  <path d="M60.39,75.54c-.22-.22-.33-.5-.33-.86v-2.08c0-.36.11-.64.33-.86.22-.22.51-.32.88-.32s.66.11.88.32c.22.21.33.5.33.85v.06s0,.04-.02.05c-.01.01-.03.02-.04.02h-.21s-.06,0-.06-.05v-.09c0-.26-.08-.47-.24-.63-.16-.16-.38-.24-.64-.24s-.48.08-.64.24c-.16.16-.24.37-.24.63v2.12c0,.26.08.48.24.64.16.16.37.24.64.24s.48-.08.64-.24c.16-.16.24-.37.24-.64v-.07s.02-.06.06-.06h.21s.06.03.06.07v.05c0,.36-.11.64-.33.86-.22.22-.52.32-.88.32s-.66-.11-.88-.33"/>
  <path d="M67.23,71.47h.2s.06.02.06.06v4.22s-.02.06-.06.06h-.2s-.06-.02-.06-.06v-1.94s0-.02-.02-.02h-1.67s-.02,0-.02.02v1.94s-.02.06-.06.06h-.2s-.06-.02-.06-.06v-4.22s.02-.06.06-.06h.2s.06.02.06.06v1.94s0,.02.02.02h1.67s.02,0,.02-.02v-1.94s.02-.06.06-.06"/>
  <path d="M70.83,75.7c-.19-.11-.33-.25-.43-.45-.1-.19-.15-.41-.15-.67v-3.06s.02-.06.06-.06h.2s.06.02.06.06v3.08c0,.29.08.52.25.69.16.18.38.26.65.26s.49-.09.65-.26c.16-.18.25-.41.25-.69v-3.08s.02-.06.06-.06h.2s.06.02.06.06v3.06c0,.25-.05.47-.15.67-.1.19-.25.34-.43.45-.19.11-.4.16-.65.16s-.46-.05-.65-.16"/>
  <path d="M77.55,75.76l-.81-1.97s-.01-.02-.02-.02h-.89s-.03,0-.03.02v1.95s-.02.06-.06.06h-.2s-.06-.02-.06-.06v-4.22s.02-.06.06-.06h1.26c.32,0,.58.11.77.32.2.22.29.5.29.84,0,.29-.07.53-.21.73-.14.2-.33.32-.58.38-.02,0-.02.02-.01.03l.82,1.96v.02s-.01.05-.05.05h-.21s-.06-.02-.07-.05M75.79,71.79v1.69s0,.02.03.02h.94c.23,0,.42-.08.56-.24.14-.16.21-.37.21-.63s-.07-.47-.21-.63c-.14-.16-.33-.24-.56-.24h-.94s-.03,0-.03.02"/>
  <path d="M82.47,75.76l-.81-1.97s-.01-.02-.02-.02h-.89s-.03,0-.03.02v1.95s-.02.06-.06.06h-.2s-.06-.02-.06-.06v-4.22s.02-.06.06-.06h1.26c.32,0,.58.11.77.32.2.22.29.5.29.84,0,.29-.07.53-.21.73-.14.2-.33.32-.58.38-.02,0-.02.02-.01.03l.82,1.96v.02s-.01.05-.05.05h-.21s-.06-.02-.07-.05M80.72,71.79v1.69s0,.02.03.02h.94c.23,0,.42-.08.56-.24.14-.16.21-.37.21-.63s-.07-.47-.21-.63c-.14-.16-.33-.24-.56-.24h-.94s-.03,0-.03.02"/>
  <path d="M85.52,75.52c-.22-.22-.33-.52-.33-.89v-1.98c0-.24.05-.45.15-.64.1-.19.24-.33.43-.43.19-.1.4-.16.64-.16s.46.05.65.16c.19.1.33.25.44.43.1.19.16.4.16.64v1.98c0,.24-.05.46-.16.64-.1.19-.25.33-.44.43-.19.1-.4.15-.65.15-.37,0-.66-.11-.89-.34M87.07,75.32c.17-.17.25-.39.25-.66v-2.01c0-.28-.08-.5-.25-.67-.17-.17-.39-.26-.66-.26s-.48.09-.65.26c-.16.17-.25.4-.25.67v2.01c0,.27.08.49.25.66.17.17.38.25.64.25s.49-.09.66-.25"/>
  <path d="M90.41,75.56c-.22-.2-.33-.47-.33-.8v-.17s.02-.06.06-.06h.19s.06.02.06.06v.15c0,.25.08.45.25.6.17.15.39.23.67.23s.48-.07.64-.21c.15-.14.23-.33.23-.57,0-.15-.04-.29-.11-.4-.07-.11-.17-.22-.31-.31-.13-.09-.33-.21-.57-.34-.26-.14-.47-.27-.61-.37-.14-.1-.25-.22-.34-.37-.09-.14-.13-.32-.13-.53,0-.33.1-.58.31-.77.21-.18.48-.28.83-.28.38,0,.67.1.89.31.22.2.33.48.33.82v.15s-.02.06-.06.06h-.2s-.06-.02-.06-.06v-.14c0-.26-.08-.46-.24-.61-.16-.15-.38-.23-.66-.23-.25,0-.45.06-.59.2s-.21.32-.21.56c0,.15.03.28.1.38.06.1.16.2.28.28.12.08.31.19.56.33.28.15.49.29.65.4.16.11.27.24.36.38.08.14.13.32.13.52,0,.33-.11.6-.33.81-.22.2-.51.3-.88.3s-.68-.1-.9-.3"/>
  <path d="M98.07,75.56c-.22-.2-.33-.47-.33-.8v-.17s.02-.06.06-.06h.19s.06.02.06.06v.15c0,.25.08.45.25.6.17.15.39.23.67.23s.48-.07.64-.21c.15-.14.23-.33.23-.57,0-.15-.04-.29-.11-.4-.07-.11-.17-.22-.31-.31-.13-.09-.33-.21-.57-.34-.26-.14-.47-.27-.61-.37-.14-.1-.25-.22-.34-.37-.09-.14-.13-.32-.13-.53,0-.33.1-.58.31-.77.2-.18.48-.28.83-.28.38,0,.67.1.89.31.22.2.33.48.33.82v.15s-.02.06-.06.06h-.2s-.06-.02-.06-.06v-.14c0-.26-.08-.46-.24-.61-.16-.15-.38-.23-.66-.23-.25,0-.45.06-.59.2-.14.13-.21.32-.21.56,0,.15.03.28.1.38.06.1.16.2.28.28.12.08.31.19.56.33.28.15.49.29.65.4.15.11.27.24.36.38.08.14.13.32.13.52,0,.33-.11.6-.33.81-.22.2-.51.3-.88.3s-.68-.1-.9-.3"/>
  <path d="M104.79,71.78c.2.22.29.5.29.86s-.1.63-.29.84c-.2.21-.45.32-.77.32h-.99s-.02,0-.02.02v1.92s-.02.06-.06.06h-.2s-.06-.02-.06-.06v-4.23s.02-.06.06-.06h1.28c.32,0,.58.11.77.33M104.55,73.29c.14-.16.21-.37.21-.64s-.07-.49-.21-.65c-.14-.16-.33-.24-.56-.24h-.95s-.02,0-.02.02v1.72s0,.02.02.02h.95c.23,0,.42-.08.56-.24"/>
  <path d="M109.82,71.76h-1.9s-.02,0-.02.02v1.68s0,.02.02.02h1.3s.06.02.06.06v.17s-.02.06-.06.06h-1.3s-.02,0-.02.02v1.69s0,.02.02.02h1.9s.06.02.06.06v.17s-.02.06-.06.06h-2.2s-.06-.02-.06-.06v-4.22s.02-.06.06-.06h2.2s.06.02.06.06v.17s-.02.06-.06.06"/>
  <path d="M112.65,75.54c-.22-.22-.33-.5-.33-.86v-2.08c0-.36.11-.64.33-.86.22-.22.51-.32.88-.32s.66.11.88.32c.22.21.33.5.33.85v.06s0,.04-.02.05c-.01.01-.03.02-.04.02h-.2s-.06,0-.06-.05v-.09c0-.26-.08-.47-.24-.63-.16-.16-.38-.24-.64-.24s-.48.08-.64.24-.24.37-.24.63v2.12c0,.26.08.48.24.64.16.16.37.24.64.24s.48-.08.64-.24c.16-.16.24-.37.24-.64v-.07s.02-.06.06-.06h.2s.06.03.06.07v.05c0,.36-.11.64-.33.86-.22.22-.52.32-.88.32s-.66-.11-.88-.33"/>
  <path d="M117.38,75.75v-4.22s.02-.06.06-.06h.2s.06.02.06.06v4.22s-.02.06-.06.06h-.2s-.06-.02-.06-.06"/>
  <path d="M122.49,75.76l-.22-.82s-.01-.02-.03-.02h-1.56s-.03,0-.03.02l-.22.82s-.03.06-.07.06h-.21s-.04,0-.05-.02c-.01-.01-.01-.03,0-.05l1.17-4.22s.03-.05.07-.05h.26s.06.02.07.05l1.17,4.22v.02s-.01.05-.06.05h-.2s-.06-.02-.07-.06M120.74,74.64s.01,0,.02,0h1.4s.02,0,.02,0c0,0,0-.01,0-.02l-.71-2.67s0-.01-.02-.01c0,0-.01,0-.02.01l-.71,2.67s0,0,0,.02"/>
  <path d="M125.22,75.75v-4.22s.02-.06.06-.06h.2s.06.02.06.06v3.96s0,.02.02.02h1.84s.06.02.06.06v.17s-.02.06-.06.06h-2.13s-.06-.02-.06-.06"/>
  <path d="M129.86,75.75v-4.22s.02-.06.06-.06h.2s.06.02.06.06v4.22s-.02.06-.06.06h-.2s-.06-.02-.06-.06"/>
  <path d="M133.08,75.56c-.22-.2-.33-.47-.33-.8v-.17s.02-.06.06-.06h.19s.06.02.06.06v.15c0,.25.08.45.25.6.17.15.39.23.67.23s.48-.07.64-.21c.15-.14.23-.33.23-.57,0-.15-.04-.29-.11-.4-.07-.11-.17-.22-.31-.31-.13-.09-.33-.21-.57-.34-.26-.14-.47-.27-.61-.37-.14-.1-.25-.22-.34-.37-.09-.14-.13-.32-.13-.53,0-.33.1-.58.31-.77.2-.18.48-.28.83-.28.38,0,.67.1.89.31.22.2.33.48.33.82v.15s-.02.06-.06.06h-.2s-.06-.02-.06-.06v-.14c0-.26-.08-.46-.24-.61-.16-.15-.38-.23-.66-.23-.25,0-.45.06-.59.2-.14.13-.21.32-.21.56,0,.15.03.28.1.38.06.1.16.2.28.28.12.08.31.19.56.33.28.15.49.29.65.4.16.11.27.24.36.38.08.14.13.32.13.52,0,.33-.11.6-.33.81-.22.2-.51.3-.88.3s-.68-.1-.9-.3"/>
  <path d="M139.81,71.53v.17s-.02.06-.06.06h-1.03s-.03,0-.03.02v3.96s-.02.06-.06.06h-.2s-.06-.02-.06-.06v-3.96s0-.02-.03-.02h-.97s-.06-.02-.06-.06v-.17s.02-.06.06-.06h2.38s.06.02.06.06"/>
  <path d="M142.39,75.56c-.22-.2-.33-.47-.33-.8v-.17s.02-.06.06-.06h.19s.06.02.06.06v.15c0,.25.08.45.25.6.17.15.39.23.67.23s.48-.07.64-.21.23-.33.23-.57c0-.15-.04-.29-.11-.4-.07-.11-.17-.22-.31-.31-.13-.09-.33-.21-.57-.34-.26-.14-.47-.27-.61-.37-.14-.1-.25-.22-.34-.37-.09-.14-.13-.32-.13-.53,0-.33.1-.58.31-.77.2-.18.48-.28.83-.28.38,0,.67.1.89.31.22.2.33.48.33.82v.15s-.02.06-.06.06h-.21s-.06-.02-.06-.06v-.14c0-.26-.08-.46-.24-.61-.16-.15-.38-.23-.66-.23-.25,0-.45.06-.59.2-.14.13-.21.32-.21.56,0,.15.03.28.1.38.06.1.16.2.28.28.12.08.31.19.56.33.28.15.49.29.65.4.15.11.27.24.36.38.09.14.13.32.13.52,0,.33-.11.6-.33.81-.22.2-.51.3-.88.3s-.68-.1-.9-.3"/>
  <path class="cls-1" d="M148.1,76.3v-5.75s.02-.07.07-.07h.53s.07.02.07.07v5.75s-.02.07-.07.07h-.53s-.07-.02-.07-.07"/>
  <polygon class="cls-3" points="35.54 75.76 45.38 53.84 27.63 37.4 9.89 53.84 19.71 75.76 35.54 75.76"/>
  <path class="cls-5" d="M44.95,54.11l-17.31-14.23-3.93,11.25c-.07.21.07.44.29.46l20.95,2.52Z"/>
  <polygon class="cls-2" points="45.38 53.84 27.63 37.4 22.15 48.37 45.38 53.84"/>
  <path class="cls-5" d="M45.38,54.28s-.07,0-.1-.01l-23.23-5.46c-.13-.03-.24-.12-.3-.24-.06-.12-.06-.27,0-.39l5.48-10.97c.06-.12.18-.21.32-.24.14-.02.28.02.38.11l17.74,16.44c.15.14.18.36.09.53-.08.15-.23.23-.39.23M22.8,48.07l21.05,4.95-16.08-14.89-4.97,9.94Z"/>
  <path class="cls-5" d="M35.54,76.21h-15.83c-.17,0-.33-.1-.4-.26l-9.81-21.93c-.08-.17-.04-.38.1-.51l17.74-16.44c.17-.16.43-.16.6,0l17.74,16.44c.14.13.18.33.1.51l-9.84,21.93c-.07.16-.23.26-.4.26M19.99,75.32h15.26l9.59-21.38-17.21-15.94-17.21,15.94,9.57,21.38Z"/>
</svg>