<?xml version="1.0" encoding="UTF-8"?>
<svg id="Layer_1" data-name="Layer 1" xmlns="http://www.w3.org/2000/svg" viewBox="0 0 96 96">
  <defs>
    <style>
      .cls-1 {
        fill: #a98e67;
        stroke-width: 0px;
      }
    </style>
  </defs>
  <path class="cls-1" d="M54.85,46.8c10.28-5.2,15.99-16.94,13.08-28.58l-8.36,2.08c2.23,8.9-3.18,17.9-12.07,20.13-8.89,2.22-17.9-3.2-20.12-12.08l-8.36,2.08c2.83,11.32,12.9,18.89,24.05,19.08-12.92,5.99-20.11,20.85-16.42,35.65l9.97-2.5c-2.74-10.98,3.63-22.03,14.24-24.67,10.61-2.65,21.42,4.1,24.17,15.08l9.98-2.5c-3.61-14.4-16.35-24.01-30.15-23.78h0Z"/>
  <path class="cls-1" d="M55.39,23.37c1.5,6.05-2.17,12.16-8.2,13.67-6.04,1.51-12.16-2.16-13.66-8.2-1.51-6.04,2.16-12.15,8.2-13.66,6.04-1.51,12.15,2.16,13.66,8.2Z"/>
</svg>