<?xml version="1.0" encoding="UTF-8"?>
<svg id="Layer_1" xmlns="http://www.w3.org/2000/svg" version="1.1" viewBox="0 0 96 96">
  <!-- Generator: Adobe Illustrator 29.6.1, SVG Export Plug-In . SVG Version: 2.1.1 Build 9)  -->
  <defs>
    <style>
      .st0 {
        fill: #231f20;
      }
    </style>
  </defs>
  <path class="st0" d="M48,22.1c8.4,0,9.4,0,12.8.2,3.1.1,4.8.6,5.9,1.1,1.5.6,2.5,1.3,3.6,2.4,1.1,1.1,1.8,2.2,2.4,3.6.4,1.1.9,2.8,1.1,5.9.2,3.3.2,4.3.2,12.8s0,9.4-.2,12.8c-.1,3.1-.7,4.8-1.1,5.9-.6,1.5-1.3,2.5-2.4,3.6-1.1,1.1-2.2,1.8-3.6,2.4-1.1.4-2.8.9-5.9,1.1-3.3.2-4.3.2-12.8.2s-9.4,0-12.8-.2c-3.1-.1-4.8-.7-5.9-1.1-1.5-.6-2.5-1.3-3.6-2.4-1.1-1.1-1.8-2.2-2.4-3.6-.4-1.1-1-2.8-1.1-5.9-.1-3.3-.2-4.3-.2-12.8s0-9.4.2-12.8c.1-3.1.6-4.8,1.1-5.9.6-1.5,1.3-2.5,2.4-3.6,1.1-1.1,2.2-1.8,3.6-2.4,1.1-.4,2.8-1,5.9-1.1,3.3-.1,4.3-.2,12.8-.2M48,16.4c-8.6,0-9.6,0-13,.2-3.4.1-5.6.7-7.7,1.5-2.1.8-3.8,1.9-5.6,3.6-1.8,1.8-2.8,3.5-3.6,5.6-.8,2-1.3,4.3-1.5,7.7-.1,3.4-.2,4.4-.2,13s0,9.6.2,13c.1,3.4.7,5.7,1.5,7.7.8,2.1,1.9,3.8,3.6,5.6,1.8,1.8,3.5,2.8,5.6,3.6,2,.8,4.3,1.3,7.7,1.5,3.4.2,4.4.2,13,.2s9.6,0,13-.2c3.4-.2,5.7-.7,7.7-1.5,2.1-.8,3.8-1.9,5.6-3.6,1.8-1.8,2.8-3.5,3.6-5.6.8-2,1.3-4.3,1.5-7.7.2-3.4.2-4.4.2-13s0-9.6-.2-13c-.2-3.4-.7-5.6-1.5-7.7-.8-2.1-1.9-3.8-3.6-5.6-1.8-1.8-3.5-2.8-5.6-3.6-2-.8-4.3-1.3-7.7-1.5-3.4-.1-4.4-.2-13-.2h0Z"/>
  <path class="st0" d="M48,31.8c-9,0-16.2,7.2-16.2,16.2s7.2,16.2,16.2,16.2,16.2-7.2,16.2-16.2-7.2-16.2-16.2-16.2ZM48,58.5c-5.8,0-10.5-4.7-10.5-10.5s4.7-10.5,10.5-10.5,10.5,4.7,10.5,10.5-4.7,10.5-10.5,10.5Z"/>
  <circle class="st0" cx="64.8" cy="31.2" r="3.8"/>
</svg>