<?xml version="1.0" encoding="UTF-8"?>
<svg id="Layer_1" data-name="Layer 1" xmlns="http://www.w3.org/2000/svg" viewBox="0 0 96 96">
  <defs>
    <style>
      .cls-1 {
        fill: #a98e67;
        stroke-width: 0px;
      }
    </style>
  </defs>
  <path class="cls-1" d="M41.09,39.81c-1.11-.74-4.8-3.31-4.8-3.31,3.11-4.46,7.22-6.2,12.89-6.2,4.01,0,7.42,1.35,9.85,3.91,2.43,2.56,3.82,6.22,4.14,10.91,1.35.57,2.59,1.23,3.73,1.99,4.56,3.07,7.07,7.67,7.07,12.94,0,11.2-9.16,20.93-25.75,20.93-14.24,0-29.04-8.3-29.04-33.02S33.52,15,48.18,15c6.77,0,22.66,1,28.63,20.77l-5.6,1.46c-4.62-14.08-14.3-16.33-23.18-16.33-14.68,0-22.98,8.96-22.98,28.01,0,17.09,9.28,26.16,23.17,26.16,11.43,0,19.95-5.95,19.95-14.67,0-5.93-4.97-8.77-5.23-8.77-.97,5.09-3.57,13.65-15,13.65-6.66,0-12.4-4.61-12.4-10.65,0-8.62,8.16-11.75,14.61-11.75,2.41,0,5.33.16,6.84.47,0-2.63-2.22-7.13-7.82-7.13-5.14,0-6.44,1.67-8.09,3.58ZM50.95,48.78c-8.4,0-9.48,3.59-9.48,5.84,0,3.62,4.29,4.82,6.58,4.82,4.2,0,8.51-1.17,9.19-10-2.13-.48-3.72-.66-6.29-.66Z"/>
</svg>