<?xml version="1.0" encoding="UTF-8"?>
<svg id="Layer_1" data-name="Layer 1" xmlns="http://www.w3.org/2000/svg" viewBox="0 0 96 96">
  <defs>
    <style>
      .cls-1 {
        fill: #a98e67;
        stroke-width: 0px;
      }
    </style>
  </defs>
  <path class="cls-1" d="M82.9,55.45c-.23-1.07-.36-2.17-.71-3.2-1.42-4.21-4.22-7.33-8-9.56-4.95-2.92-10.31-3.82-15.96-2.89-5.06.83-9.42,3.03-12.86,6.92-4.67,5.28-5.35,12.69-1.53,18.59,3.8,5.87,9.51,8.56,16.28,9.28,3.21.34,6.35-.17,9.45-.98.28-.07.65-.07.9.06,1.53.76,3.05,1.57,4.56,2.37.57.3,1.14.61,1.81.96-.06-.21-.08-.31-.11-.41-.54-1.7-1.08-3.4-1.64-5.1-.11-.34-.1-.54.22-.75.43-.28.82-.61,1.22-.94,2.83-2.31,4.91-5.13,5.9-8.68.25-.91.38-1.86.56-2.79v-2.55c-.03-.12-.07-.23-.1-.35ZM55.9,54.17c-1.54,0-2.79-1.25-2.79-2.79s1.25-2.79,2.79-2.79,2.79,1.25,2.79,2.79-1.25,2.79-2.79,2.79ZM69.49,54.17c-1.54,0-2.79-1.25-2.79-2.79s1.25-2.79,2.79-2.79,2.79,1.25,2.79,2.79-1.25,2.79-2.79,2.79Z"/>
  <path class="cls-1" d="M40.47,53.43c1.05-4.63,3.74-8.16,7.53-10.88,4.54-3.25,9.69-4.52,15.22-4.41.35,0,.7,0,1.06,0,0-.08.02-.13,0-.18-.12-.46-.22-.93-.36-1.38-1.9-6-5.88-10.24-11.38-13.03-6.74-3.42-13.83-3.89-21.05-1.74-5.68,1.69-10.34,4.89-13.57,9.95-2.43,3.82-3.4,8.02-2.71,12.53.67,4.37,2.73,8.04,5.9,11.09,1.13,1.09,2.38,2.05,3.61,3.1-.76,2.28-1.55,4.64-2.39,7.14.38-.2.6-.31.82-.42,2.31-1.23,4.62-2.45,6.92-3.7.4-.22.74-.26,1.19-.12,2.74.85,5.55,1.25,8.41,1.31.42,0,.83,0,1.31,0-.09-.32-.15-.54-.22-.76-.83-2.81-.95-5.65-.3-8.5ZM48.33,30.72c1.93,0,3.5,1.57,3.5,3.5s-1.57,3.5-3.5,3.5-3.5-1.57-3.5-3.5,1.57-3.5,3.5-3.5ZM31.29,37.72c-1.93,0-3.5-1.57-3.5-3.5s1.57-3.5,3.5-3.5,3.5,1.57,3.5,3.5-1.57,3.5-3.5,3.5Z"/>
</svg>