<?xml version="1.0" encoding="UTF-8"?>
<svg id="Layer_1" data-name="Layer 1" xmlns="http://www.w3.org/2000/svg" viewBox="0 0 96 96">
  <defs>
    <style>
      .cls-1 {
        fill: #a98e67;
        stroke-width: 0px;
      }
    </style>
  </defs>
  <path class="cls-1" d="M42.87,69.97c-10.31,1.02-19.22-3.64-19.89-10.42-.67-6.77,7.15-13.08,17.46-14.1,10.31-1.02,19.22,3.64,19.89,10.41.67,6.77-7.15,13.09-17.46,14.11M63.5,47.49c-.88-.26-1.48-.44-1.02-1.59.99-2.5,1.1-4.66.02-6.2-2.02-2.89-7.56-2.73-13.9-.08,0,0-1.99.87-1.48-.71.98-3.14.83-5.76-.69-7.28-3.44-3.44-12.59.13-20.44,7.97-5.88,5.88-9.29,12.11-9.29,17.49,0,10.3,13.21,16.57,26.14,16.57,16.94,0,28.21-9.84,28.21-17.66,0-4.72-3.98-7.4-7.55-8.51"/>
  <path class="cls-1" d="M74.75,28.63c-4.09-4.54-10.13-6.27-15.7-5.08h0c-1.29.28-2.11,1.54-1.83,2.83.28,1.29,1.54,2.11,2.83,1.83,3.96-.84,8.25.39,11.16,3.61,2.81,3.11,3.74,7.48,2.45,11.47h0c-.41,1.25.28,2.6,1.53,3,0,0,0,0,0,0,1.25.4,2.6-.28,3-1.53h0c1.75-5.43.64-11.61-3.45-16.14"/>
  <path class="cls-1" d="M68.47,34.3c-1.99-2.21-4.93-3.05-7.65-2.47-1.12.2-1.85,1.27-1.65,2.39s1.27,1.85,2.39,1.65c.04,0,.08-.02.12-.02h0c1.37-.29,2.8.17,3.74,1.21.94,1.04,1.25,2.51.82,3.84h0c-.35,1.08.24,2.24,1.32,2.59,1.08.35,2.24-.24,2.59-1.32.85-2.64.32-5.65-1.68-7.86"/>
  <path class="cls-1" d="M43.9,50.66c-4.91-1.28-10.46,1.17-12.59,5.49-2.17,4.41-.07,9.31,4.89,10.91,5.14,1.66,11.19-.88,13.3-5.64,2.08-4.65-.52-9.45-5.59-10.76ZM40.15,61.92c-1,1.59-3.13,2.29-4.74,1.55-1.59-.72-2.05-2.57-1.05-4.12.98-1.54,3.05-2.23,4.65-1.56,1.62.69,2.13,2.53,1.15,4.13ZM43.44,57.7c-.36.62-1.16.91-1.78.66-.61-.25-.81-.94-.46-1.55.36-.6,1.13-.9,1.74-.65.62.23.85.93.5,1.55Z"/>
</svg>