<?xml version="1.0" encoding="UTF-8"?>
<svg id="Layer_1" data-name="Layer 1" xmlns="http://www.w3.org/2000/svg" viewBox="0 0 96 96">
  <defs>
    <style>
      .cls-1 {
        fill: #a98e67;
        stroke-width: 0px;
      }
    </style>
  </defs>
  <g id="g1">
    <path id="path1" class="cls-1" d="M24.87,18.18c-3.51.73-6.42,3.47-6.77,7.16-.37,3.81,0,7.85,0,11.68v23.83c0,4.38-1.11,10.32,1.71,14.02,3.05,3.99,8.6,3.04,13,3.04h34.11c1.35,0,2.88.2,4.2-.08,3.51-.73,6.42-3.47,6.77-7.16.37-3.81,0-7.85,0-11.68v-23.83c0-4.38,1.11-10.32-1.71-14.02-3.05-3.99-8.6-3.04-13-3.04H29.08c-1.35,0-2.88-.2-4.2.08M46.13,39.36l-1.64,4.44h2.8l-2.34,5.61,2.1.23c-.23.63-.54,1.81-1.01,2.3-.35.36-.87.27-1.32.27-1.02,0-3.08.42-3.62-.7-.25-.51.11-1.16.31-1.64.42-.98.99-1.99,1.21-3.04-.51,0-1.15.1-1.64-.08-1.82-.67.2-3.59.62-4.59.29-.71.64-2.24,1.28-2.69.9-.63,2.27-.19,3.23-.12M27.68,54.07c.64,0,1.6.19,1.99-.47.41-.7.12-2.24.12-3.04v-7.71c0-.72-.36-2.93.27-3.39.52-.38,2.73-.3,2.96.35.38,1.06.04,2.84.04,3.97v7.48c0,1.28.22,2.77-.31,3.97-.51,1.14-2.87,2.17-4.05,1.28-.52-.39-.88-1.85-1.01-2.45M63.18,39.36v1.17c.87,0,1.96-.18,2.8.08,2.8.85,2.57,3.6,2.57,6,.47,0,.94-.04,1.4.08,2.68.67,2.34,3.36,2.34,5.53,0,1.16.22,2.53-.55,3.5-.84,1.08-2.21.93-3.43.93-.38,0-1,.12-1.32-.12-.61-.44-.88-1.75-1.01-2.45.77,0,2.15.26,2.76-.31.72-.68.43-3.32-.43-3.78-.45-.24-1.14-.12-1.64-.12h-3.5v6.77h-3.27v-6.77h-3.27v-3.27h3.27v-2.8h-2.1v-3.27h2.1v-1.17h3.27M55.71,40.52v3.27h-1.87v9.81h3.04v3.04h-10.75l1.25-2.92,2.96-.12v-9.81h-1.87v-3.27h7.24M69.02,43.8c0-.66-.12-1.46.08-2.1.78-2.52,4.58-.49,2.69,1.6-.22.24-.59.35-.9.43-.6.15-1.26.08-1.87.08M27.68,43.8l-.97,8.64-1.6,2.8-1.4-3.74.7-7.71h3.27M38.42,43.8l.7,7.71-1.4,3.5h-.47c-1.25-1.99-1.41-4.03-1.64-6.31-.16-1.62-.47-3.28-.47-4.91h3.27M63.18,43.8v2.8h2.1v-2.8h-2.1M45.66,53.61l-1.17,3.04h-5.14l1.25-3.15,1.79.04,3.27.08Z"/>
  </g>
</svg>